<svg width="318" height="65" viewBox="0 0 318 65" fill="none" xmlns="http://www.w3.org/2000/svg">
<path d="M3.8147e-06 8.99348V53.9215L10.944 56.9215V29.9775L20.992 59.3379L25.408 60.7086L25.408 43.0975L12.864 11.9935L3.8147e-06 8.99348Z" fill="#CD0606"/>
<path d="M50.816 8.99348V53.9215L39.872 56.9215V29.9775L29.824 59.3379L25.408 60.7086V43.0975L37.952 11.9935L50.816 8.99348Z" fill="#E40606"/>
<path d="M0.00062561 8.99153L12.8928 11.9966L17.1137 8.051L4.47389 5L0.00062561 8.99153Z" fill="#8D8D8D"/>
<path d="M50.816 8.99153L37.9238 11.9966L33.7029 8.051L46.3427 5L50.816 8.99153Z" fill="#8D8D8D"/>
<path d="M12.8737 11.983L17.1426 8.0425L25.4341 29.3869V43.1787L12.8737 11.983Z" fill="#858484"/>
<path d="M37.9684 11.983L33.6995 8.0425L25.408 29.3869V43.1787L37.9684 11.983Z" fill="#6F6F6F"/>
<path d="M34.8106 55.3309L39.8768 56.9203V29.8506L34.8106 44.7529V55.3309Z" fill="#6C6B6B"/>
<path d="M16.0069 55.3309L10.9406 56.9203V29.8506L16.0069 44.7529V55.3309Z" fill="#838383"/>
<path d="M113.293 17.32L107.877 48H98.3L100.987 32.7467L93.5767 48H85.3433L83.3067 32.6167L80.62 48H71L76.4167 17.32H88.2033L91.7133 35.78L101.55 17.32H113.293ZM122.271 48.3033C120.104 48.3033 118.197 47.8844 116.551 47.0467C114.904 46.2089 113.619 45.0244 112.694 43.4933C111.77 41.9333 111.307 40.1278 111.307 38.0767C111.307 35.2456 111.972 32.7033 113.301 30.45C114.659 28.1967 116.507 26.4344 118.847 25.1633C121.187 23.8922 123.802 23.2567 126.691 23.2567C128.857 23.2567 130.764 23.69 132.411 24.5567C134.057 25.3944 135.343 26.5933 136.267 28.1533C137.192 29.6844 137.654 31.4756 137.654 33.5267C137.654 36.3578 136.99 38.9 135.661 41.1533C134.332 43.4067 132.497 45.1689 130.157 46.44C127.817 47.6822 125.189 48.3033 122.271 48.3033ZM123.744 39.9833C124.986 39.9833 125.969 39.42 126.691 38.2933C127.413 37.1667 127.774 35.91 127.774 34.5233C127.774 33.5411 127.529 32.8044 127.037 32.3133C126.575 31.8222 125.969 31.5767 125.217 31.5767C123.975 31.5767 122.993 32.14 122.271 33.2667C121.549 34.3933 121.187 35.65 121.187 37.0367C121.187 38.0189 121.419 38.7556 121.881 39.2467C122.343 39.7378 122.964 39.9833 123.744 39.9833ZM150.73 38.8567L157.36 23.56H167.586L155.106 48H143.103L139.29 23.56H149.516L150.73 38.8567Z" fill="#E40606"/>
<path d="M164.909 21.61C163.233 21.61 161.89 21.1622 160.879 20.2667C159.868 19.3711 159.362 18.2444 159.362 16.8867C159.362 15.5 159.868 14.3589 160.879 13.4633C161.89 12.5389 163.233 12.0767 164.909 12.0767C166.556 12.0767 167.884 12.5389 168.896 13.4633C169.907 14.3589 170.412 15.5 170.412 16.8867C170.412 18.2444 169.907 19.3711 168.896 20.2667C167.884 21.1622 166.556 21.61 164.909 21.61ZM169.676 23.56V48H160.056V23.56H169.676ZM189.62 23.3867C192.423 23.3867 194.604 24.3256 196.164 26.2033C197.753 28.0811 198.547 30.6233 198.547 33.83V48H188.97V35.0433C188.97 33.8878 188.653 32.9778 188.017 32.3133C187.41 31.62 186.587 31.2733 185.547 31.2733C184.478 31.2733 183.64 31.62 183.034 32.3133C182.427 32.9778 182.124 33.8878 182.124 35.0433V48H172.504V23.56H182.124V27.2867C182.875 26.1311 183.872 25.1922 185.114 24.47C186.385 23.7478 187.887 23.3867 189.62 23.3867ZM224.862 35.5633C224.862 36.2278 224.819 36.8633 224.732 37.47H209.262C209.406 39.5789 210.287 40.6333 211.905 40.6333C212.945 40.6333 213.696 40.1567 214.159 39.2033H224.342C223.995 40.9367 223.259 42.4967 222.132 43.8833C221.034 45.2411 219.633 46.3244 217.929 47.1333C216.253 47.9133 214.404 48.3033 212.382 48.3033C209.955 48.3033 207.789 47.7978 205.882 46.7867C204.004 45.7756 202.531 44.3311 201.462 42.4533C200.422 40.5467 199.902 38.3222 199.902 35.78C199.902 33.2378 200.422 31.0278 201.462 29.15C202.531 27.2433 204.004 25.7844 205.882 24.7733C207.789 23.7622 209.955 23.2567 212.382 23.2567C214.809 23.2567 216.961 23.7622 218.839 24.7733C220.745 25.7556 222.219 27.1711 223.259 29.02C224.327 30.8689 224.862 33.05 224.862 35.5633ZM215.112 33.2667C215.112 32.4578 214.852 31.8511 214.332 31.4467C213.812 31.0133 213.162 30.7967 212.382 30.7967C210.677 30.7967 209.681 31.62 209.392 33.2667H215.112ZM241.598 39.81V48H237.958C231.255 48 227.904 44.6633 227.904 37.99V31.5767H224.871V23.56H227.904V17.6667H237.524V23.56H241.511V31.5767H237.524V38.1633C237.524 38.7411 237.654 39.16 237.914 39.42C238.203 39.68 238.665 39.81 239.301 39.81H241.598ZM269.615 23.56V48H259.995V44.2733C259.244 45.4289 258.233 46.3678 256.961 47.09C255.719 47.8122 254.231 48.1733 252.498 48.1733C249.696 48.1733 247.5 47.2344 245.911 45.3567C244.351 43.4789 243.571 40.9367 243.571 37.73V23.56H253.148V36.5167C253.148 37.6722 253.451 38.5967 254.058 39.29C254.694 39.9544 255.531 40.2867 256.571 40.2867C257.64 40.2867 258.478 39.9544 259.085 39.29C259.691 38.5967 259.995 37.6722 259.995 36.5167V23.56H269.615ZM305.073 23.3867C308.193 23.3867 310.605 24.3256 312.31 26.2033C314.043 28.0811 314.91 30.6233 314.91 33.83V48H305.333V35.0433C305.333 34.0033 305.015 33.1944 304.38 32.6167C303.773 32.01 302.95 31.7067 301.91 31.7067C300.841 31.7067 300.003 32.01 299.396 32.6167C298.79 33.1944 298.486 34.0033 298.486 35.0433V48H288.91V35.0433C288.91 34.0033 288.592 33.1944 287.956 32.6167C287.35 32.01 286.526 31.7067 285.486 31.7067C284.417 31.7067 283.58 32.01 282.973 32.6167C282.366 33.1944 282.063 34.0033 282.063 35.0433V48H272.443V23.56H282.063V26.8533C282.756 25.8133 283.695 24.9756 284.88 24.34C286.093 23.7044 287.508 23.3867 289.126 23.3867C290.888 23.3867 292.448 23.7767 293.806 24.5567C295.164 25.3078 296.247 26.3767 297.056 27.7633C297.952 26.4922 299.093 25.4522 300.48 24.6433C301.866 23.8056 303.397 23.3867 305.073 23.3867Z" fill="white"/>
</svg>
