<svg width="184" height="47" viewBox="0 0 184 47" fill="none" xmlns="http://www.w3.org/2000/svg">
<rect width="183.074" height="45.2218" transform="translate(0 0.834717)" fill="#212121"/>
<path d="M60.6351 22.5792C61.3004 22.9644 61.3004 23.9249 60.6351 24.3101L42.2774 34.9382C41.6107 35.3242 40.7764 34.8431 40.7764 34.0728L40.7764 12.8165C40.7764 12.0461 41.6107 11.5651 42.2774 11.9511L60.6351 22.5792Z" fill="#F9F9F9"/>
<path fill-rule="evenodd" clip-rule="evenodd" d="M31.0934 11.0879H30.3861C29.9701 11.0879 29.5976 11.3454 29.4506 11.7345L23.721 26.9031C23.6886 26.989 23.5673 26.9895 23.5342 26.9038L17.669 11.7274C17.5201 11.342 17.1495 11.0879 16.7363 11.0879H10.1113C9.55904 11.0879 9.11133 11.5356 9.11133 12.0879V34.8092C9.11133 35.3615 9.55904 35.8092 10.1113 35.8092H14.9842C15.5365 35.8092 15.9842 35.3615 15.9842 34.8092V22.6651C15.9842 22.5521 16.1423 22.5259 16.1788 22.6328L20.4517 35.1326C20.59 35.5373 20.9703 35.8092 21.398 35.8092H25.7188C26.1464 35.8092 26.5267 35.5373 26.665 35.1327L30.9029 22.7379C30.9359 22.6412 31.0684 22.6534 31.0934 22.7402V11.0879ZM31.5882 35.8091C31.5913 35.8091 31.5944 35.8092 31.5975 35.8092H37.4704C37.4734 35.8092 37.4765 35.8091 37.4796 35.8091H31.5882Z" fill="url(#paint0_linear_37_2607)"/>
<path d="M31.0869 11.084H36.9707C37.523 11.084 37.9707 11.5317 37.9707 12.084V34.8053C37.9707 35.3575 37.523 35.8053 36.9707 35.8053H32.0869C31.5346 35.8053 31.0869 35.3575 31.0869 34.8053V11.084Z" fill="#F9F9F9"/>
<path d="M84.9798 17.0992V29.9456H81.4084V22.8573L78.9849 29.9456H75.9965L73.5548 22.8026V29.9456H69.9833V17.0992H74.3019L77.5271 25.4448L80.6795 17.0992H84.9798ZM91.131 30.0731C90.1105 30.0731 89.1934 29.8605 88.3795 29.4353C87.5777 29.0102 86.946 28.4028 86.4844 27.6132C86.0228 26.8236 85.792 25.8942 85.792 24.8252C85.792 23.7684 86.0228 22.8451 86.4844 22.0555C86.9582 21.2659 87.5959 20.6585 88.3977 20.2333C89.2116 19.8082 90.1288 19.5956 91.1492 19.5956C92.1696 19.5956 93.0807 19.8082 93.8825 20.2333C94.6964 20.6585 95.3341 21.2659 95.7957 22.0555C96.2695 22.8451 96.5064 23.7684 96.5064 24.8252C96.5064 25.8821 96.2695 26.8114 95.7957 27.6132C95.3341 28.4028 94.6964 29.0102 93.8825 29.4353C93.0685 29.8605 92.1514 30.0731 91.131 30.0731ZM91.131 26.9754C91.629 26.9754 92.0421 26.7932 92.37 26.4288C92.7102 26.0522 92.8803 25.5177 92.8803 24.8252C92.8803 24.1328 92.7102 23.6044 92.37 23.2399C92.0421 22.8755 91.6351 22.6933 91.1492 22.6933C90.6633 22.6933 90.2563 22.8755 89.9283 23.2399C89.6003 23.6044 89.4363 24.1328 89.4363 24.8252C89.4363 25.5298 89.5943 26.0643 89.9101 26.4288C90.2259 26.7932 90.6329 26.9754 91.131 26.9754ZM102.223 26.5745L104.137 19.7231H107.945L104.428 29.9456H99.982L96.4652 19.7231H100.274L102.223 26.5745ZM110.321 18.7756C109.69 18.7756 109.179 18.6055 108.791 18.2654C108.414 17.9131 108.226 17.4758 108.226 16.9534C108.226 16.4189 108.414 15.9755 108.791 15.6232C109.179 15.271 109.69 15.0948 110.321 15.0948C110.941 15.0948 111.439 15.271 111.816 15.6232C112.204 15.9755 112.399 16.4189 112.399 16.9534C112.399 17.4758 112.204 17.9131 111.816 18.2654C111.439 18.6055 110.941 18.7756 110.321 18.7756ZM112.089 19.7231V29.9456H108.517V19.7231H112.089ZM120.172 19.632C121.351 19.632 122.286 20.0268 122.979 20.8164C123.671 21.5939 124.017 22.6508 124.017 23.987V29.9456H120.446V24.4608C120.446 23.8777 120.294 23.4222 119.99 23.0942C119.686 22.754 119.279 22.584 118.769 22.584C118.235 22.584 117.816 22.754 117.512 23.0942C117.208 23.4222 117.056 23.8777 117.056 24.4608V29.9456H113.485V19.7231H117.056V21.1809C117.372 20.7193 117.797 20.3488 118.332 20.0694C118.866 19.7778 119.48 19.632 120.172 19.632ZM135.106 24.7159C135.106 24.9953 135.088 25.2747 135.051 25.5541H128.291C128.327 26.1129 128.479 26.532 128.747 26.8114C129.026 27.0787 129.378 27.2123 129.803 27.2123C130.399 27.2123 130.824 26.945 131.079 26.4105H134.887C134.729 27.1151 134.42 27.7468 133.958 28.3056C133.509 28.8522 132.938 29.2835 132.245 29.5993C131.553 29.9152 130.787 30.0731 129.949 30.0731C128.941 30.0731 128.042 29.8605 127.252 29.4353C126.475 29.0102 125.861 28.4028 125.412 27.6132C124.975 26.8236 124.756 25.8942 124.756 24.8252C124.756 23.7562 124.975 22.833 125.412 22.0555C125.849 21.2659 126.457 20.6585 127.234 20.2333C128.024 19.8082 128.929 19.5956 129.949 19.5956C130.957 19.5956 131.85 19.8021 132.628 20.2151C133.405 20.6282 134.013 21.2234 134.45 22.0009C134.887 22.7662 135.106 23.6712 135.106 24.7159ZM131.462 23.823C131.462 23.3857 131.316 23.0456 131.024 22.8026C130.733 22.5475 130.368 22.42 129.931 22.42C129.494 22.42 129.135 22.5414 128.856 22.7844C128.576 23.0152 128.394 23.3614 128.309 23.823H131.462ZM141.961 26.9025V29.9456H140.412C137.801 29.9456 136.495 28.6518 136.495 26.0643V22.6933H135.237V19.7231H136.495V17.245H140.084V19.7231H141.943V22.6933H140.084V26.119C140.084 26.3984 140.145 26.5988 140.267 26.7203C140.4 26.8418 140.619 26.9025 140.923 26.9025H141.961ZM153.421 19.7231V29.9456H149.831V28.4878C149.527 28.9494 149.108 29.326 148.574 29.6176C148.039 29.897 147.426 30.0367 146.733 30.0367C145.543 30.0367 144.601 29.6479 143.909 28.8705C143.229 28.0809 142.889 27.0119 142.889 25.6634V19.7231H146.442V25.2079C146.442 25.791 146.594 26.2526 146.897 26.5927C147.213 26.9207 147.626 27.0847 148.137 27.0847C148.659 27.0847 149.072 26.9207 149.376 26.5927C149.679 26.2526 149.831 25.791 149.831 25.2079V19.7231H153.421ZM168.172 19.632C169.46 19.632 170.468 20.0208 171.197 20.7982C171.938 21.5757 172.309 22.6386 172.309 23.987V29.9456H168.737V24.4608C168.737 23.9141 168.585 23.489 168.282 23.1853C167.978 22.8816 167.565 22.7297 167.042 22.7297C166.52 22.7297 166.107 22.8816 165.803 23.1853C165.5 23.489 165.348 23.9141 165.348 24.4608V29.9456H161.776V24.4608C161.776 23.9141 161.625 23.489 161.321 23.1853C161.029 22.8816 160.622 22.7297 160.1 22.7297C159.565 22.7297 159.146 22.8816 158.843 23.1853C158.539 23.489 158.387 23.9141 158.387 24.4608V29.9456H154.816V19.7231H158.387V21.0716C158.703 20.6342 159.11 20.288 159.608 20.0329C160.118 19.7657 160.701 19.632 161.357 19.632C162.11 19.632 162.779 19.796 163.362 20.124C163.957 20.452 164.425 20.9136 164.765 21.5089C165.129 20.9501 165.609 20.5006 166.204 20.1605C166.8 19.8082 167.455 19.632 168.172 19.632Z" fill="#F3F3F3"/>
<defs>
<linearGradient id="paint0_linear_37_2607" x1="9.11133" y1="34.0762" x2="43.1397" y2="15.5986" gradientUnits="userSpaceOnUse">
<stop stop-color="#FFC700"/>
<stop offset="0.463542" stop-color="#EDBC0E"/>
<stop offset="1" stop-color="#715C11"/>
</linearGradient>
</defs>
</svg>
