<svg width="51" height="56" viewBox="0 0 51 56" fill="none" xmlns="http://www.w3.org/2000/svg">
<path d="M3.8147e-06 3.99349V48.9215L10.944 51.9215V24.9775L20.992 54.3379L25.408 55.7086L25.408 38.0975L12.864 6.99349L3.8147e-06 3.99349Z" fill="#CD0606"/>
<path d="M50.816 3.99349V48.9215L39.872 51.9215V24.9775L29.824 54.3379L25.408 55.7086V38.0975L37.952 6.99349L50.816 3.99349Z" fill="#E40606"/>
<path d="M0.00062561 3.99153L12.8928 6.99665L17.1137 3.051L4.47389 0L0.00062561 3.99153Z" fill="#8D8D8D"/>
<path d="M50.816 3.99153L37.9238 6.99665L33.7029 3.051L46.3427 0L50.816 3.99153Z" fill="#8D8D8D"/>
<path d="M12.8737 6.983L17.1426 3.04249L25.4341 24.3869V38.1787L12.8737 6.983Z" fill="#858484"/>
<path d="M37.9684 6.983L33.6995 3.04249L25.408 24.3869V38.1787L37.9684 6.983Z" fill="#6F6F6F"/>
<path d="M34.8106 50.3309L39.8768 51.9203V24.8506L34.8106 39.7529V50.3309Z" fill="#6C6B6B"/>
<path d="M16.0069 50.3309L10.9406 51.9203V24.8506L16.0069 39.7529V50.3309Z" fill="#838383"/>
</svg>
