<svg width="40" height="40" viewBox="0 0 40 40" fill="none" xmlns="http://www.w3.org/2000/svg">
<rect width="40" height="40" rx="4" fill="#212121"/>
<path d="M33.979 19.516C34.3507 19.7312 34.3507 20.2679 33.979 20.4832L23.7206 26.4222C23.3481 26.6379 22.8818 26.3691 22.8818 25.9386L22.8818 14.0605C22.8818 13.6301 23.3481 13.3612 23.7206 13.5769L33.979 19.516Z" fill="#F9F9F9"/>
<path fill-rule="evenodd" clip-rule="evenodd" d="M17.4704 19.6065C17.4569 19.5574 17.3823 19.5502 17.3637 19.6045L14.9956 26.5308C14.9183 26.7569 14.7058 26.9088 14.4668 26.9088H12.0523C11.8134 26.9088 11.6009 26.7569 11.5236 26.5308L9.13586 19.5458C9.11543 19.4861 9.0271 19.5007 9.0271 19.5639V26.35C9.0271 26.6586 8.77692 26.9088 8.4683 26.9088H5.74533C5.43671 26.9088 5.18652 26.6586 5.18652 26.35V13.6533C5.18652 13.3447 5.43671 13.0945 5.74533 13.0945H9.44736C9.67825 13.0945 9.88537 13.2365 9.9686 13.4518L13.246 21.9325C13.2645 21.9803 13.3323 21.9801 13.3504 21.9321L16.5522 13.4558C16.6343 13.2384 16.8425 13.0945 17.0749 13.0945H17.4704V19.6065ZM17.7504 26.9088C17.7509 26.9088 17.7514 26.9088 17.7519 26.9088H21.0336C21.0341 26.9088 21.0346 26.9088 21.0351 26.9088H17.7504Z" fill="url(#paint0_linear_48_3145)"/>
<path d="M17.4668 13.0923H20.7547C21.0633 13.0923 21.3135 13.3425 21.3135 13.6511V26.3478C21.3135 26.6564 21.0633 26.9066 20.7547 26.9066H18.0256C17.717 26.9066 17.4668 26.6564 17.4668 26.3478V13.0923Z" fill="#F9F9F9"/>
<defs>
<linearGradient id="paint0_linear_48_3145" x1="5.18652" y1="25.9404" x2="24.1991" y2="15.619" gradientUnits="userSpaceOnUse">
<stop stop-color="#FFC700"/>
<stop offset="0.463542" stop-color="#EDBC0E"/>
<stop offset="1" stop-color="#715C11"/>
</linearGradient>
</defs>
</svg>
